<svg id="minemo-light" xmlns="http://www.w3.org/2000/svg" width="285" height="110" viewBox="0 0 285 110">
  <defs>
    <style>
      .cls-1 {
        fill: #ffe22d;
      }

      .cls-2 {
        fill: #fff;
      }
    </style>
  </defs>
  <path id="icon" class="cls-1" d="M48.417,89.7L19.127,72.8l0.011-33.815,29.3-16.916,29.29,16.9,18.359-10.6L48.446,0.883,0.785,28.4l-0.017,55,47.64,27.485,47.66-27.517,0.007-21.187Z"/>
  <path id="icon-1" class="cls-2" d="M32.4,65.134L32.41,46.643l16.018,9.24L64.45,46.633,64.445,65.125,48.421,74.376Z"/>
  <path id="minemo" class="cls-2" d="M129.528,77.585a13.088,13.088,0,0,0,3.96-1.836,14.276,14.276,0,0,0,2.916-2.7h0.432a6.8,6.8,0,0,0,1.44,2.736,6.6,6.6,0,0,0,2.484,1.764,8.686,8.686,0,0,0,3.348.612,12.377,12.377,0,0,0,3.384-.4q1.368-.4,2.088-0.684V71.033h-2.3a2.871,2.871,0,0,1-1.728-.576,2.242,2.242,0,0,1-.792-1.944V50.657a12.043,12.043,0,0,0-1.656-6.48,10.615,10.615,0,0,0-5-4.1,21.743,21.743,0,0,0-8.532-1.44,23.3,23.3,0,0,0-7.992,1.26,12.168,12.168,0,0,0-5.4,3.636,8.594,8.594,0,0,0-1.944,5.616v0.864a3.654,3.654,0,0,0,.072.72h8.5V49.721a3.661,3.661,0,0,1,.576-1.944,4.374,4.374,0,0,1,2.088-1.584,10.87,10.87,0,0,1,4.176-.648,8.306,8.306,0,0,1,4,.756,4,4,0,0,1,1.836,2.052,8.1,8.1,0,0,1,.5,2.952v3.1a68.931,68.931,0,0,0-9.54.612,26.113,26.113,0,0,0-7.488,2.088,11.755,11.755,0,0,0-4.86,4.032,11.261,11.261,0,0,0-1.728,6.444,11.113,11.113,0,0,0,1.224,5.58,8.377,8.377,0,0,0,3.132,3.2,13.014,13.014,0,0,0,3.96,1.476,19.509,19.509,0,0,0,3.636.4A19.05,19.05,0,0,0,129.528,77.585Zm-5.688-7.092a3.98,3.98,0,0,1-1.872-1.512,4.166,4.166,0,0,1-.612-2.268,4.448,4.448,0,0,1,1.98-3.888,12.648,12.648,0,0,1,5.328-1.872,49.338,49.338,0,0,1,7.308-.5v1.728a10.306,10.306,0,0,1-.612,3.6,7.907,7.907,0,0,1-1.728,2.808,7.646,7.646,0,0,1-2.808,1.8,10.713,10.713,0,0,1-3.852.648A7.969,7.969,0,0,1,123.84,70.493ZM163.4,89.825V72.977h0.432a11.2,11.2,0,0,0,2.808,2.916,11.6,11.6,0,0,0,3.816,1.764,18.436,18.436,0,0,0,4.752.576,13,13,0,0,0,12.672-8.568,28.641,28.641,0,0,0,1.872-11.16,29.6,29.6,0,0,0-1.836-11.3,13.444,13.444,0,0,0-5.184-6.48,14.871,14.871,0,0,0-8.028-2.088,15.071,15.071,0,0,0-6.7,1.476,11.906,11.906,0,0,0-4.9,4.428h-0.5l-0.72-5.04H154.62V89.825H163.4Zm4.716-19.944a6.844,6.844,0,0,1-2.664-2.3,10.656,10.656,0,0,1-1.548-3.708,22.471,22.471,0,0,1-.5-5V58a20.059,20.059,0,0,1,.9-6.444,7.88,7.88,0,0,1,2.808-4,8.143,8.143,0,0,1,4.86-1.368,9.239,9.239,0,0,1,5.148,1.26,6.959,6.959,0,0,1,2.736,3.888,22.559,22.559,0,0,1,.828,6.66v1.008a21.888,21.888,0,0,1-.828,6.552,6.946,6.946,0,0,1-2.736,3.852,9.229,9.229,0,0,1-5.148,1.26A8.676,8.676,0,0,1,168.12,69.881Zm37.908-36.216V25.313h-8.784v8.352h8.784Zm0,43.7V39.5h-8.784V77.369h8.784Zm39.168,0v-7.2H225.18L244.4,43.529V39.5H213.66v7.2h17.928L212.436,73.265v4.1H245.2Zm20.34,0.216a13.1,13.1,0,0,0,3.96-1.836,14.328,14.328,0,0,0,2.916-2.7h0.432a6.79,6.79,0,0,0,1.44,2.736,6.584,6.584,0,0,0,2.484,1.764,8.679,8.679,0,0,0,3.348.612,12.387,12.387,0,0,0,3.384-.4q1.366-.4,2.088-0.684V71.033h-2.3a2.866,2.866,0,0,1-1.728-.576,2.24,2.24,0,0,1-.792-1.944V50.657a12.051,12.051,0,0,0-1.656-6.48,10.62,10.62,0,0,0-5-4.1,21.743,21.743,0,0,0-8.532-1.44,23.3,23.3,0,0,0-7.992,1.26,12.168,12.168,0,0,0-5.4,3.636,8.594,8.594,0,0,0-1.944,5.616v0.864a3.58,3.58,0,0,0,.072.72h8.5V49.721a3.652,3.652,0,0,1,.576-1.944,4.369,4.369,0,0,1,2.088-1.584,10.866,10.866,0,0,1,4.176-.648,8.312,8.312,0,0,1,4,.756,4.008,4.008,0,0,1,1.836,2.052,8.121,8.121,0,0,1,.5,2.952v3.1a68.921,68.921,0,0,0-9.54.612,26.1,26.1,0,0,0-7.488,2.088,11.755,11.755,0,0,0-4.86,4.032,11.261,11.261,0,0,0-1.728,6.444,11.1,11.1,0,0,0,1.224,5.58,8.363,8.363,0,0,0,3.132,3.2,13,13,0,0,0,3.96,1.476,19.5,19.5,0,0,0,3.636.4A19.055,19.055,0,0,0,265.536,77.585Zm-5.688-7.092a3.97,3.97,0,0,1-1.872-1.512,4.158,4.158,0,0,1-.612-2.268,4.445,4.445,0,0,1,1.98-3.888,12.643,12.643,0,0,1,5.328-1.872,49.329,49.329,0,0,1,7.308-.5v1.728a10.329,10.329,0,0,1-.612,3.6,7.935,7.935,0,0,1-1.728,2.808,7.662,7.662,0,0,1-2.808,1.8,10.717,10.717,0,0,1-3.852.648A7.962,7.962,0,0,1,259.848,70.493Z"/>
</svg>
